<mxfile host="app.diagrams.net" agent="Mozilla/5.0 (Windows NT 10.0; Win64; x64) AppleWebKit/537.36 (KHTML, like Gecko) Chrome/132.0.0.0 Safari/537.36 Edg/132.0.0.0" version="26.0.6">
  <diagram name="第 1 页" id="Y4oczqHeiSc2w7NScO-S">
    <mxGraphModel dx="1284" dy="706" grid="1" gridSize="10" guides="1" tooltips="1" connect="1" arrows="1" fold="1" page="1" pageScale="1" pageWidth="2339" pageHeight="3300" math="0" shadow="0">
      <root>
        <mxCell id="0" />
        <mxCell id="1" parent="0" />
        <mxCell id="dSg831dWEwxhKmMtTKUf-7" value="&lt;div&gt;&lt;br&gt;&lt;/div&gt;&lt;div&gt;&lt;br&gt;&lt;/div&gt;&lt;div&gt;&lt;br&gt;&lt;/div&gt;&lt;div&gt;&lt;br&gt;&lt;/div&gt;&lt;div&gt;&lt;br&gt;&lt;/div&gt;&lt;div&gt;&lt;br&gt;&lt;/div&gt;&lt;div&gt;&lt;br&gt;&lt;/div&gt;&lt;div&gt;前端&lt;/div&gt;" style="rounded=0;whiteSpace=wrap;html=1;" vertex="1" parent="1">
          <mxGeometry x="230" y="110" width="550" height="160" as="geometry" />
        </mxCell>
        <mxCell id="dSg831dWEwxhKmMtTKUf-3" style="edgeStyle=orthogonalEdgeStyle;rounded=0;orthogonalLoop=1;jettySize=auto;html=1;entryX=0;entryY=0.5;entryDx=0;entryDy=0;" edge="1" parent="1" source="dSg831dWEwxhKmMtTKUf-1" target="dSg831dWEwxhKmMtTKUf-2">
          <mxGeometry relative="1" as="geometry" />
        </mxCell>
        <mxCell id="dSg831dWEwxhKmMtTKUf-1" value="用户点击支付" style="rounded=0;whiteSpace=wrap;html=1;" vertex="1" parent="1">
          <mxGeometry x="230" y="140" width="80" height="60" as="geometry" />
        </mxCell>
        <mxCell id="dSg831dWEwxhKmMtTKUf-5" value="" style="edgeStyle=orthogonalEdgeStyle;rounded=0;orthogonalLoop=1;jettySize=auto;html=1;" edge="1" parent="1" source="dSg831dWEwxhKmMtTKUf-2" target="dSg831dWEwxhKmMtTKUf-4">
          <mxGeometry relative="1" as="geometry" />
        </mxCell>
        <mxCell id="dSg831dWEwxhKmMtTKUf-2" value="初始化订单，状态NOTPAY" style="rounded=0;whiteSpace=wrap;html=1;" vertex="1" parent="1">
          <mxGeometry x="400" y="140" width="160" height="60" as="geometry" />
        </mxCell>
        <mxCell id="dSg831dWEwxhKmMtTKUf-4" value="选择支付方式（WeChat/AliPay)" style="whiteSpace=wrap;html=1;rounded=0;" vertex="1" parent="1">
          <mxGeometry x="620" y="140" width="160" height="60" as="geometry" />
        </mxCell>
        <mxCell id="dSg831dWEwxhKmMtTKUf-8" value="&lt;div&gt;&lt;br&gt;&lt;/div&gt;&lt;div&gt;&lt;br&gt;&lt;/div&gt;&lt;div&gt;&lt;br&gt;&lt;/div&gt;&lt;div&gt;&lt;br&gt;&lt;/div&gt;&lt;div&gt;&lt;br&gt;&lt;/div&gt;&lt;div&gt;&lt;br&gt;&lt;/div&gt;&lt;div&gt;&lt;br&gt;&lt;/div&gt;&lt;div&gt;后端&lt;/div&gt;" style="rounded=0;whiteSpace=wrap;html=1;" vertex="1" parent="1">
          <mxGeometry x="230" y="420" width="550" height="160" as="geometry" />
        </mxCell>
        <mxCell id="dSg831dWEwxhKmMtTKUf-9" value="payOrder&lt;div&gt;根据支付类型请求支付&lt;/div&gt;" style="whiteSpace=wrap;html=1;rounded=0;" vertex="1" parent="1">
          <mxGeometry x="620" y="460" width="160" height="60" as="geometry" />
        </mxCell>
        <mxCell id="dSg831dWEwxhKmMtTKUf-10" value="" style="edgeStyle=orthogonalEdgeStyle;rounded=0;orthogonalLoop=1;jettySize=auto;html=1;" edge="1" parent="1" source="dSg831dWEwxhKmMtTKUf-4" target="dSg831dWEwxhKmMtTKUf-9">
          <mxGeometry relative="1" as="geometry" />
        </mxCell>
        <mxCell id="dSg831dWEwxhKmMtTKUf-11" value="调用后端接口" style="edgeLabel;html=1;align=center;verticalAlign=middle;resizable=0;points=[];" vertex="1" connectable="0" parent="dSg831dWEwxhKmMtTKUf-10">
          <mxGeometry x="-0.0182" relative="1" as="geometry">
            <mxPoint as="offset" />
          </mxGeometry>
        </mxCell>
        <mxCell id="dSg831dWEwxhKmMtTKUf-12" value="payCallback&lt;div&gt;支付回调，更新订单状态&lt;/div&gt;" style="whiteSpace=wrap;html=1;rounded=0;" vertex="1" parent="1">
          <mxGeometry x="350" y="460" width="160" height="60" as="geometry" />
        </mxCell>
      </root>
    </mxGraphModel>
  </diagram>
</mxfile>
